<?xml version="1.0" standalone="no"?>
<!DOCTYPE svg PUBLIC "-//W3C//DTD SVG 20010904//EN"
 "http://www.w3.org/TR/2001/REC-SVG-20010904/DTD/svg10.dtd">
<svg version="1.0" xmlns="http://www.w3.org/2000/svg"
 width="512.000000pt" height="512.000000pt" viewBox="0 0 512.000000 512.000000"
 preserveAspectRatio="xMidYMid meet">

<g transform="translate(0.000000,512.000000) scale(0.100000,-0.100000)"
fill="#000000" stroke="none">
<path d="M3907 3473 c-4 -3 -7 -105 -7 -225 0 -126 -4 -227 -10 -238 -26 -48
-153 -50 -190 -3 -17 22 -20 40 -20 139 l0 114 -55 0 -55 0 0 -100 c0 -116
-15 -165 -55 -180 -15 -6 -85 -10 -156 -10 l-129 0 0 -50 0 -50 46 0 c37 0 45
-3 42 -16 -9 -50 -139 -86 -234 -66 -72 15 -109 42 -129 97 -17 43 -14 84 11
148 4 12 -5 19 -35 28 -37 11 -43 10 -56 -7 -22 -30 -38 -117 -31 -166 17
-114 110 -187 252 -196 170 -11 308 51 329 148 6 27 10 30 48 30 48 1 110 21
136 44 16 15 19 15 35 -3 26 -28 107 -45 188 -38 76 7 119 27 152 70 20 27 21
42 24 283 l3 254 -49 0 c-27 0 -52 -3 -55 -7z"/>
<path d="M3585 3425 c-14 -13 -25 -29 -25 -35 0 -17 47 -60 65 -60 18 0 65 43
65 60 0 17 -47 60 -65 60 -9 0 -27 -11 -40 -25z"/>
<path d="M4281 3231 l-31 -39 30 -22 c36 -26 80 -98 80 -131 0 -55 -19 -64
-139 -67 l-111 -4 0 -50 0 -50 133 4 c144 3 169 11 204 65 24 36 23 145 -1
192 -20 38 -91 118 -117 132 -14 7 -24 1 -48 -30z"/>
<path d="M3620 2720 c-81 -13 -95 -18 -98 -35 -5 -45 9 -49 108 -32 51 9 94
18 96 19 1 2 -1 17 -4 33 l-7 30 -95 -15z"/>
<path d="M4312 2720 c-51 -10 -94 -19 -96 -21 -9 -8 7 -59 18 -59 6 0 49 7 96
15 47 8 86 15 88 15 5 0 1 46 -6 56 -5 7 -35 5 -100 -6z"/>
<path d="M3040 2627 c-35 -18 -46 -41 -32 -71 25 -55 112 -37 112 24 0 39 -44
65 -80 47z"/>
<path d="M3156 2614 c-41 -40 6 -108 62 -88 37 13 52 57 27 84 -22 24 -67 26
-89 4z"/>
<path d="M2840 2134 l0 -286 128 4 c84 4 139 10 162 21 116 51 173 138 173
261 0 85 -19 136 -71 189 -68 71 -149 97 -302 97 l-90 0 0 -286z m261 163
c144 -76 123 -295 -34 -342 -28 -8 -66 -15 -84 -15 l-33 0 0 190 0 190 53 0
c37 0 68 -7 98 -23z"/>
<path d="M3396 2399 c-48 -38 -23 -99 41 -99 34 0 63 26 63 58 0 21 -43 62
-65 62 -7 0 -24 -9 -39 -21z"/>
<path d="M3580 2135 l0 -285 50 0 50 0 0 285 0 285 -50 0 -50 0 0 -285z"/>
<path d="M3913 2225 c-18 -8 -33 -10 -33 -5 0 6 -22 10 -50 10 l-50 0 0 -190
0 -190 50 0 50 0 0 103 c0 158 18 197 87 197 61 0 68 -14 71 -164 l4 -136 50
0 49 0 -3 144 c-3 128 -5 148 -24 173 -47 63 -133 88 -201 58z"/>
<path d="M3380 2041 l0 -191 55 0 55 0 -2 188 -3 187 -52 3 -53 3 0 -190z"/>
<path d="M4170 2218 c1 -7 36 -89 79 -183 l78 -170 -44 -95 c-25 -52 -47 -101
-50 -107 -4 -10 10 -13 49 -13 l54 0 132 283 c73 155 132 285 132 290 0 12
-97 8 -107 -5 -5 -7 -31 -61 -58 -120 -27 -60 -52 -105 -55 -100 -4 4 -26 52
-50 107 -24 55 -48 106 -53 113 -5 7 -31 12 -58 12 -33 0 -49 -4 -49 -12z"/>
</g>
</svg>
