<?xml version="1.0" standalone="no"?>
<!DOCTYPE svg PUBLIC "-//W3C//DTD SVG 20010904//EN"
 "http://www.w3.org/TR/2001/REC-SVG-20010904/DTD/svg10.dtd">
<svg version="1.0" xmlns="http://www.w3.org/2000/svg"
 width="512.000000pt" height="512.000000pt" viewBox="0 0 512.000000 512.000000"
 preserveAspectRatio="xMidYMid meet">

<g transform="translate(0.000000,512.000000) scale(0.100000,-0.100000)"
fill="#000000" stroke="none">
<path d="M2590 3694 c-167 -47 -251 -55 -635 -59 -416 -3 -541 -18 -708 -84
-28 -11 -33 -37 -14 -68 5 -7 5 -17 2 -23 -3 -5 -2 -10 2 -10 5 0 15 -21 21
-47 7 -26 19 -61 27 -78 8 -16 16 -41 19 -55 6 -39 25 -104 34 -117 12 -19
323 -28 467 -13 325 33 568 172 779 445 55 71 101 137 94 134 -2 -1 -41 -12
-88 -25z"/>
<path d="M4390 3695 c-8 -2 -49 -9 -90 -15 -457 -73 -866 -427 -1053 -910 -20
-52 -68 -184 -106 -292 -38 -108 -76 -209 -84 -223 l-14 -27 -21 53 c-72 180
-80 404 -22 591 10 32 15 58 12 58 -11 0 -159 -104 -227 -160 -85 -70 -233
-222 -298 -308 l-48 -62 11 -58 c7 -31 47 -154 90 -272 94 -259 121 -346 158
-510 l28 -125 346 -3 345 -2 12 112 c43 398 120 735 235 1022 124 308 213 445
560 860 119 143 216 263 216 268 0 8 -19 9 -50 3z"/>
<path d="M2435 2855 c-122 -58 -297 -85 -565 -85 -146 0 -240 -12 -327 -41
-35 -11 -63 -22 -63 -23 0 -6 33 -103 41 -121 5 -11 10 -31 12 -45 1 -14 6
-30 10 -37 6 -9 47 -130 52 -153 12 -54 9 -53 134 -47 311 15 491 118 666 382
44 67 122 207 113 204 -2 0 -34 -16 -73 -34z"/>
<path d="M2090 2043 c-54 -39 -109 -61 -229 -92 -60 -16 -114 -32 -119 -35 -5
-3 11 -66 36 -141 l44 -135 49 27 c99 53 185 174 239 333 12 34 20 64 18 65
-2 2 -19 -8 -38 -22z"/>
</g>
</svg>
