<?xml version="1.0" standalone="no"?>
<!DOCTYPE svg PUBLIC "-//W3C//DTD SVG 20010904//EN"
 "http://www.w3.org/TR/2001/REC-SVG-20010904/DTD/svg10.dtd">
<svg version="1.0" xmlns="http://www.w3.org/2000/svg"
 width="200.000000pt" height="200.000000pt" viewBox="0 0 200.000000 200.000000"
 preserveAspectRatio="xMidYMid meet">

<g transform="translate(0.000000,200.000000) scale(0.100000,-0.100000)"
fill="#000000" stroke="none">
<path d="M897 1989 c-347 -37 -658 -259 -804 -577 -38 -81 -83 -244 -83 -298
l0 -34 235 0 234 0 11 43 c19 78 81 188 140 247 199 199 532 205 731 14 l36
-35 214 101 c118 56 216 104 218 106 7 7 -82 115 -141 169 -116 108 -270 194
-418 234 -66 18 -239 43 -280 39 -8 0 -50 -4 -93 -9z"/>
<path d="M0 1000 l0 -30 238 0 237 0 0 30 0 30 -237 0 -238 0 0 -30z"/>
<path d="M10 886 c0 -54 45 -217 83 -298 285 -617 1095 -776 1595 -313 60 56
148 162 141 170 -3 2 -101 49 -218 105 l-214 101 -36 -35 c-200 -191 -531
-184 -731 16 -60 60 -121 167 -140 246 l-11 42 -234 0 -235 0 0 -34z"/>
</g>
</svg>
