<?xml version="1.0" standalone="no"?>
<!DOCTYPE svg PUBLIC "-//W3C//DTD SVG 20010904//EN"
 "http://www.w3.org/TR/2001/REC-SVG-20010904/DTD/svg10.dtd">
<svg version="1.0" xmlns="http://www.w3.org/2000/svg"
 width="512.000000pt" height="512.000000pt" viewBox="0 0 512.000000 512.000000"
 preserveAspectRatio="xMidYMid meet">

<g transform="translate(0.000000,512.000000) scale(0.100000,-0.100000)"
fill="#000000" stroke="none">
<path d="M3170 4644 c-8 -1 -36 -5 -62 -9 -111 -14 -256 -154 -343 -329 -65
-132 -99 -258 -114 -419 -18 -191 8 -354 79 -503 141 -293 415 -332 652 -93
65 65 85 95 133 191 35 73 67 156 87 233 29 113 31 131 32 305 1 164 -2 194
-22 263 -31 108 -65 171 -129 238 -59 62 -134 102 -223 119 -53 10 -62 10 -90
4z"/>
<path d="M1777 4620 c-63 -16 -112 -47 -160 -100 -198 -220 -205 -692 -16
-1062 72 -139 142 -212 265 -274 92 -47 100 -49 178 -49 106 1 183 34 256 111
134 142 199 432 155 694 -52 316 -201 562 -395 654 -56 27 -77 31 -155 33 -49
1 -107 -2 -128 -7z"/>
<path d="M3995 3583 c-147 -20 -318 -117 -416 -236 -67 -83 -153 -259 -180
-372 -33 -134 -31 -283 5 -391 66 -194 224 -305 414 -291 300 23 603 427 604
807 1 170 -45 293 -142 383 -81 75 -189 113 -285 100z"/>
<path d="M1010 3540 c-150 -32 -256 -145 -296 -317 -23 -96 -14 -292 16 -388
87 -276 295 -507 514 -570 85 -25 194 -17 264 19 161 82 232 232 219 464 -17
299 -169 584 -384 720 -101 65 -232 93 -333 72z"/>
<path d="M2495 2895 c-176 -101 -561 -418 -760 -628 -333 -349 -498 -701 -482
-1022 12 -223 95 -406 254 -556 115 -108 237 -172 385 -203 154 -32 287 -14
434 58 92 46 191 129 260 219 l30 39 44 -57 c130 -164 321 -258 525 -257 204
0 384 80 536 238 215 224 285 522 198 844 -58 214 -198 411 -523 735 -197 196
-305 290 -436 380 -240 164 -299 204 -341 228 l-46 26 -78 -44z"/>
</g>
</svg>
